<?xml version="1.0" standalone="no"?>
<!DOCTYPE svg PUBLIC "-//W3C//DTD SVG 20010904//EN"
 "http://www.w3.org/TR/2001/REC-SVG-20010904/DTD/svg10.dtd">
<svg version="1.0" xmlns="http://www.w3.org/2000/svg"
 width="700.000000pt" height="700.000000pt" viewBox="0 0 700.000000 700.000000"
 preserveAspectRatio="xMidYMid meet">
<metadata>
Created by potrace 1.14, written by Peter Selinger 2001-2017
</metadata>
<g transform="translate(0.000000,700.000000) scale(0.100000,-0.100000)"
fill="#000000" stroke="none">
<path d="M3250 5963 c-88 -8 -245 -37 -350 -63 -826 -207 -1484 -819 -1750
-1630 -88 -264 -120 -475 -120 -772 0 -295 34 -507 122 -776 174 -530 526
-985 1008 -1302 96 -63 384 -210 474 -243 l49 -17 -37 42 c-146 170 -238 354
-282 558 -24 115 -24 334 0 448 117 552 580 932 1136 932 556 0 1020 -381
1136 -932 24 -112 24 -323 1 -441 -41 -204 -135 -392 -283 -565 l-37 -42 49
17 c90 33 378 180 474 243 604 398 987 987 1107 1705 14 87 18 164 18 375 0
277 -9 364 -57 570 -78 337 -260 707 -483 985 -88 109 -271 291 -380 378 -355
283 -822 477 -1270 527 -83 9 -443 11 -525 3z m200 -1401 l0 -1308 -118 -16
c-278 -38 -524 -160 -722 -358 -246 -245 -371 -546 -371 -890 0 -194 32 -354
102 -508 l28 -63 -57 32 c-252 143 -520 381 -703 624 -242 323 -394 687 -455
1090 -25 167 -25 503 0 670 73 484 286 929 610 1275 321 341 713 574 1151 685
152 38 351 68 493 73 l42 2 0 -1308z m390 1282 c332 -46 680 -178 965 -369
496 -331 848 -825 990 -1390 54 -216 69 -342 69 -585 0 -243 -15 -369 -69
-585 -80 -318 -240 -638 -449 -900 -166 -207 -439 -441 -658 -564 l-57 -33 28
64 c69 152 102 314 102 503 0 212 -41 387 -135 572 -191 379 -554 633 -977
684 l-99 12 0 1310 0 1309 88 -6 c48 -4 139 -14 202 -22z"/>
</g>
</svg>
